<?xml version="1.0" encoding="utf-8"?>
<svg version="1.1" id="Layer_1" xmlns="http://www.w3.org/2000/svg" xmlns:xlink="http://www.w3.org/1999/xlink" x="0px" y="0px"
	 viewBox="0 0 284.1 120.7" style="enable-background:new 0 0 284.1 120.7;" xml:space="preserve">
<g>
	<path fill="#bfa658" d="M87.2,114.6c-1,0.6-2.1,0.9-3.2,1.1c-1.1,0.2-2.2,0.1-3.3-0.1c-1.1-0.2-2.1-0.7-3.1-1.3
		c-0.9-0.6-1.7-1.4-2.4-2.4l0,0l15.2-11.7l-1-1.5l0,0c-0.4,0.2-0.8,0.1-1.2-0.4c-0.4-0.4-0.8-0.8-1.2-1.1c-0.9-0.7-2-1.3-3-1.6
		c-1.3-0.4-2.6-0.7-4-0.7s-2.7,0.1-4,0.5s-2.6,0.9-3.7,1.6c-0.8,0.5-1.6,1.2-2.3,1.9c-0.7,0.7-1.3,1.5-1.8,2.4s-0.9,1.8-1.1,2.8
		c-0.6,2-0.7,4.4-0.2,6.7c0.2,1.1,0.6,2.2,1.1,3.2s1.2,1.9,2,2.8c0.8,0.8,1.7,1.5,2.7,2.1c2.4,1.4,5.1,1.8,7.8,1.6
		c1.6-0.1,3.1-0.5,4.5-1.1s2.8-1.4,4-2.4c0.7-0.6,1.2-1.2,1.6-1.8l0,0l-1.9-1.4l0,0C88.2,114,87.7,114.3,87.2,114.6L87.2,114.6
		L87.2,114.6z M73.6,107.5c-0.3-1.7-0.2-3.5,0.1-4.9c0.1-0.7,0.3-1.2,0.6-1.7c0.2-0.5,0.5-1,0.8-1.5s0.7-0.9,1.1-1.3
		c0.3-0.3,0.8-0.6,1.2-0.8c0.4-0.2,0.9-0.3,1.4-0.3c1.1,0,2.1,0.3,3.1,1.1c0.9,0.9,1.4,1.7,1.7,2.6c0.2,0.8,0.6,1.7-0.2,2.3l0,0
		l-9.2,7l0,0C73.9,109.2,73.7,108.3,73.6,107.5L73.6,107.5L73.6,107.5z M62.6,116.2c-0.7,0.3-1.5,0.5-2,0.4c-0.3,0-0.5-0.1-0.7-0.1
		c-0.2-0.1-0.4-0.2-0.5-0.4c-0.1-0.1-0.2-0.3-0.3-0.5c-0.1-0.2-0.1-0.4-0.1-0.6l0,0V97.9h5.6v-2.3H59v-6.4h-2l0,0
		c-0.6,1-1.3,2-2.1,2.8c-0.8,0.9-1.7,1.6-2.7,2.3c-1,0.7-2,1.2-3.1,1.6v2h3.4v16.4c0,1.6,0.2,3.3,1.9,4.7c0.5,0.4,0.9,0.6,1.4,0.8
		c1.9,0.8,4,0.7,5.8,0c0.5-0.2,1-0.4,1.4-0.7s0.9-0.6,1.2-1c0.4-0.4,0.7-0.8,1-1.3l0,0l-1.7-1.3l0,0
		C63.2,115.9,62.9,116.1,62.6,116.2L62.6,116.2L62.6,116.2z M0,80.2v2.3l1.7,0.2l0,0c0.4,0,0.8,0.2,1.2,0.4c0.3,0.2,0.7,0.5,1,0.9
		c0.3,0.5,0.4,0.9,0.4,1.4l0,0V115l0,0c0,0.6-0.2,1.3-0.7,1.8c-0.2,0.2-0.4,0.4-0.6,0.5s-0.5,0.2-0.8,0.3l0,0l-2,0.2v2.2l0,0
		c5.1-0.6,10.2-0.6,15.3,0l0,0v-2.3l0,0c-0.6-0.1-1.2-0.1-1.8-0.2c-0.5-0.1-1.1-0.3-1.5-0.8c-0.2-0.2-0.4-0.5-0.5-0.7
		c-0.1-0.3-0.2-0.6-0.2-0.9l0,0V85.3l0,0c0-0.8,0.2-1.6,0.9-2.3c0.2-0.2,0.4-0.3,0.6-0.4s0.4-0.1,0.7-0.2l0,0l1.8-0.1V80l0,0
		c-2.6,0.2-5.1,0.4-7.7,0.4C5.1,80.6,2.6,80.4,0,80.2L0,80.2L0,80.2z M44.9,116.7c-0.3-0.5-0.4-0.9-0.4-1.4l0,0v-12.8l0,0
		c0-1.4-0.3-2.8-1-4c-0.4-0.7-0.9-1.3-1.5-1.8s-1.3-0.9-2-1.2c-1.2-0.5-2.5-0.6-3.7-0.5c-2.5,0.2-4.9,0.8-7.3,2.1
		c-0.7,0.4-1.4,0.9-2.1,1.4l0,0v-3.9h-2.1l0,0c-0.7,0.6-1.4,1.1-2.2,1.5s-1.6,0.8-2.4,1c-0.8,0.2-1.7,0.4-2.6,0.5l0,0v1.9l0,0
		c0.6,0,1.3,0.1,1.9,0.6c0.4,0.3,0.6,0.6,0.8,0.9c0.3,0.5,0.4,1,0.4,1.5l0,0v13l0,0c0,0.6-0.2,1.2-0.7,1.7c-0.2,0.2-0.5,0.4-0.8,0.5
		s-0.6,0.2-0.9,0.2l0,0l-1.8,0.1v2.3l0,0c4.9-0.5,9.7-0.5,14.6,0V118l-1.7-0.1l0,0c-0.6-0.1-1.1-0.3-1.6-0.7
		c-0.5-0.6-0.6-1.1-0.7-1.6l0,0v-14.1l0,0c0.4-0.3,0.8-0.6,1.2-0.8c0.8-0.5,1.8-0.9,2.5-1.2c0.3-0.1,0.6-0.2,0.8-0.3
		c1.6-0.4,3.2-0.4,4.7,0.8c0.3,0.3,0.7,0.6,0.9,1c0.3,0.4,0.5,0.8,0.6,1.3c0.1,0.4,0.2,0.9,0.2,1.4l0,0v11.8l0,0
		c0,0.4-0.1,0.8-0.3,1.2c-0.2,0.3-0.5,0.7-0.9,0.9c-0.4,0.3-0.8,0.4-1.2,0.4l0,0l-1.5,0.1v2.3c4.8-0.6,9.7-0.6,14.5,0v-2.3
		c-0.6,0-1.2-0.1-1.8-0.2C46.1,117.6,45.4,117.4,44.9,116.7L44.9,116.7L44.9,116.7z M110.3,95.5c-0.4-0.3-0.9-0.4-1.4-0.5
		c-1.3-0.2-2.6,0.1-3.8,1c-0.3,0.3-0.6,0.6-0.9,0.9c-0.3,0.4-0.7,0.9-0.9,1.3c-0.3,0.5-0.5,1-0.7,1.5s-0.3,1-0.4,1.6l0,0l-0.1-6.7
		H100l0,0c-0.7,0.6-1.4,1.1-2.2,1.6c-0.8,0.4-1.6,0.8-2.5,1s-1.8,0.4-2.6,0.4l0,0v1.9l0,0c0.6,0,1.3,0.2,1.9,0.6
		c0.3,0.2,0.5,0.4,0.7,0.7s0.4,0.6,0.5,0.9c0.1,0.3,0.2,0.6,0.2,1l0,0v12.8l0,0c0,0.6-0.2,1.2-0.8,1.8c-0.5,0.5-1,0.6-1.5,0.6l0,0
		L92,118v2.3l0,0c4.8-0.5,9.7-0.5,14.5,0V118c-0.7-0.1-1.5-0.1-2.2-0.3c-0.5-0.1-1-0.3-1.4-0.9c-0.3-0.4-0.4-0.9-0.4-1.3v-10.8
		c0.2-0.8,0.5-1.7,0.7-2.3c0.1-0.3,0.2-0.4,0.2-0.6c0.2-0.4,0.7-0.9,1.1-1.1c0.4-0.2,0.7-0.2,1.1-0.2c0.6,0.1,1.3,0.5,1.9,0.8
		c1.3,0.6,2.5,0.4,3.5-0.5c0.3-0.3,0.5-0.6,0.7-0.9c0.2-0.4,0.3-0.7,0.3-1.1c0.1-0.8-0.1-1.6-0.6-2.2
		C111.1,96.1,110.8,95.7,110.3,95.5L110.3,95.5L110.3,95.5z M136.9,85.4c0.4-0.2,0.7-0.5,1-0.8s0.5-0.7,0.6-1.1
		c0.4-1.3,0.2-2.5-0.7-3.5c-0.7-0.8-1.5-1.2-2.2-1.5c-0.8-0.3-1.6-0.5-2.4-0.6c-1.7-0.2-3.2-0.2-5.1,0.3c-1,0.3-2.1,0.7-3.1,1.3
		c-1,0.6-2,1.2-2.8,2c-0.9,0.8-1.6,1.7-2.2,2.5c-1.2,1.7-1.9,3.3-2.3,5.2c-0.2,0.9-0.3,1.8-0.3,2.8l0,0v5.7h-4.3v2.3h4.1v15.2
		c0,0.6-0.2,1.2-0.7,1.7c-0.2,0.2-0.5,0.4-0.7,0.6c-0.3,0.1-0.6,0.2-0.9,0.3c-0.6,0.1-1.2,0.1-1.8,0.1l0,0v2.3l0,0
		c4.9-0.5,9.7-0.5,14.6,0l0,0V118l-1.9-0.2l0,0c-0.6-0.1-1.2-0.3-1.6-0.8c-0.2-0.2-0.4-0.5-0.5-0.8s-0.2-0.6-0.1-0.9l0,0v-15.1h5
		v-2.3h-5V88c0-0.9,0.1-1.7,0.3-2.5s0.4-1.6,0.9-2.3c0.2-0.3,0.5-0.6,0.8-0.9c0.3-0.2,0.7-0.4,1.1-0.6c0.7-0.3,1.5-0.3,2.1-0.1
		c0.3,0.1,0.6,0.2,0.9,0.4c0.3,0.2,0.5,0.4,0.7,0.6c0.5,0.6,1,1.2,1.5,1.8c0.8,0.9,1.5,1.4,2.5,1.6
		C135.2,86.1,136.2,85.9,136.9,85.4L136.9,85.4L136.9,85.4z M193.6,95.5c-0.4-0.3-0.9-0.4-1.4-0.5c-1.3-0.2-2.6,0.1-3.8,1
		c-0.3,0.3-0.6,0.6-0.9,0.9c-0.3,0.4-0.7,0.9-0.9,1.3c-0.3,0.5-0.5,1-0.7,1.5s-0.3,1-0.4,1.6l0,0l-0.1-6.7h-2.1l0,0
		c-0.7,0.6-1.4,1.1-2.2,1.6c-0.8,0.4-1.6,0.8-2.5,1s-1.8,0.4-2.6,0.4l0,0v1.9l0,0c0.6,0,1.3,0.2,1.9,0.6c0.3,0.2,0.5,0.4,0.7,0.7
		s0.4,0.6,0.5,0.9c0.1,0.3,0.2,0.6,0.2,1l0,0v12.8l0,0c0,0.6-0.2,1.2-0.8,1.8c-0.5,0.5-1,0.6-1.5,0.6l0,0l-1.7,0.1v2.3
		c4.8-0.5,9.7-0.5,14.5,0V118c-0.7-0.1-1.5-0.1-2.2-0.3c-0.5-0.1-1-0.3-1.5-0.9c-0.3-0.4-0.4-0.9-0.4-1.3v-10.8
		c0.2-0.8,0.5-1.7,0.7-2.3c0.1-0.3,0.2-0.4,0.2-0.6c0.2-0.4,0.7-0.9,1.1-1.1c0.4-0.2,0.7-0.2,1.1-0.2c0.6,0.1,1.3,0.5,1.9,0.8
		c1.3,0.6,2.5,0.4,3.5-0.5c0.3-0.3,0.5-0.6,0.7-0.9c0.2-0.4,0.3-0.7,0.3-1.1c0.1-0.8-0.1-1.6-0.6-2.2
		C194.4,96.1,194,95.7,193.6,95.5L193.6,95.5L193.6,95.5z M219.8,115.1c-0.2-0.1-0.3,0.3-0.4,0.5c-0.4,0.5-0.9,0.9-1.4,1.1
		c-0.5,0.2-1.1,0.4-1.7,0c-0.4-0.3-0.5-0.7-0.5-1.1l0,0v-13.2l0,0c0-1,0-1.9-0.4-2.9c-0.1-0.3-0.3-0.7-0.5-1s-0.4-0.6-0.7-0.9
		c-0.5-0.5-1-0.9-1.6-1.3c-1.2-0.8-2.5-1.2-3.7-1.4c-2.9-0.5-6-0.1-9.1,1.4c-0.5,0.3-1.1,0.6-1.5,1c-0.5,0.4-0.9,0.8-1.4,1.2
		c-0.7,0.9-0.9,2-0.6,3.1c0.1,0.2,0.2,0.5,0.3,0.7s0.3,0.4,0.5,0.5c0.2,0.2,0.4,0.3,0.6,0.4c0.7,0.3,1.7,0.2,2.7-0.4
		c0.3-0.2,0.6-0.4,0.8-0.7s0.4-0.6,0.6-0.9l0,0l0.8-1.6l0,0c0.2-0.4,0.4-0.7,0.6-1.1c0.9-1,2-1.6,3-1.7c0.4,0,0.7,0.1,1.1,0.2
		c0.3,0.1,0.6,0.3,0.9,0.5c0.8,0.7,1,1.6,1,2.5l0,0v4.9l0,0c-1.9,0.4-3.7,0.8-5.6,1.3c-1.4,0.3-2.7,0.7-4.1,1.5
		c-0.4,0.2-0.8,0.5-1.2,0.8s-0.7,0.7-1.1,1c-0.3,0.4-0.6,0.8-0.9,1.2c-0.7,1.3-1,2.8-0.7,4.3c0.1,0.7,0.4,1.4,0.8,2.1
		c0.2,0.3,0.4,0.6,0.7,0.9c0.3,0.3,0.5,0.6,0.8,0.8c1,0.8,2.1,1.1,3.2,1.3c0.4,0.1,0.8,0.1,1.4,0.1c0.6,0,1.5-0.1,2.4-0.4
		c0.9-0.2,1.7-0.6,2.5-1c0.8-0.5,1.5-1,2.1-1.7c0.3,0.6,0.8,1.1,1.3,1.6c0.5,0.4,1.1,0.8,1.7,1.1c1.2,0.5,2.7,0.6,4,0.2
		c0.7-0.2,1.3-0.5,1.8-0.9c0.4-0.3,0.7-0.6,1-1c0.3-0.3,0.6-0.7,0.9-1.1c0.3-0.4,0.5-0.8,0.7-1.2l0,0L219.8,115.1L219.8,115.1
		L219.8,115.1z M208.3,115.6c-0.4,0.3-0.8,0.6-1.3,0.8s-1,0.3-1.3,0.4c-0.4,0.1-0.6,0.1-0.8,0c-0.4,0-0.8-0.2-1.2-0.4
		c-0.6-0.4-0.8-0.8-1-1.3c-0.5-1.3-0.4-2.7,0.1-3.9c0.3-0.6,0.6-1.2,1.1-1.7c0.4-0.4,0.8-0.7,1.2-0.9c1.4-0.7,2.8-1.1,4.2-1.4l0,0
		v7.2l0,0C209,114.9,208.6,115.3,208.3,115.6L208.3,115.6L208.3,115.6z M171.9,100c-0.5-0.6-1.1-1.2-1.8-1.9
		c-0.4-0.3-0.8-0.6-1.2-0.9s-0.8-0.5-1.4-0.8c-0.6-0.3-1.3-0.6-2.1-0.9s-1.5-0.5-2.3-0.6s-1.6-0.2-2.3-0.2c-1.4,0-2.5,0.1-3.7,0.5
		c-0.6,0.2-1.2,0.3-1.7,0.6c-0.5,0.2-1,0.4-1.5,0.7c-0.5,0.3-1,0.6-1.4,0.9c-0.5,0.3-0.9,0.7-1.3,1c-1.2,1.1-1.9,2.1-2.6,3.1
		c-0.5,0.9-0.9,1.8-1.2,2.8c-0.6,1.9-0.6,4-0.2,6c0.2,0.7,0.4,1.4,0.7,2.1c0.3,0.7,0.6,1.4,1.1,2c0.6,0.9,1.3,1.7,2.1,2.5
		c0.5,0.4,0.9,0.9,1.4,1.1c2.5,1.7,5,2.4,7.5,2.6c1.1,0.1,2.1,0,3.2-0.2c2-0.4,3.9-1,5.8-2.3c0.6-0.4,1.1-0.9,1.7-1.3
		c0.5-0.5,1-1,1.4-1.6c1.4-1.8,2.1-3.8,2.4-5.7c0.3-1.9,0.1-3.8-0.6-5.8C173.5,102.3,172.9,101.2,171.9,100L171.9,100L171.9,100z
		 M166.8,111.6c-0.1,0.6-0.2,1-0.3,1.5c-0.1,0.4-0.3,0.9-0.4,1.3c-0.4,1-0.9,2-1.8,2.8c-0.5,0.4-1,0.8-1.6,1s-1.2,0.3-1.9,0.3
		c-0.6,0-1.3-0.1-1.9-0.3c-0.6-0.2-1.2-0.6-1.6-1c-0.5-0.4-0.9-1-1.2-1.5c-0.2-0.4-0.4-0.8-0.6-1.3c-0.4-0.9-0.6-1.7-0.8-2.8
		c-0.1-0.6-0.2-1.2-0.3-1.9s-0.1-1.4-0.1-2c0.1-1.3,0.1-2.5,0.3-3.7c0.2-1.1,0.5-2.1,0.9-3c0.4-1,0.9-2,1.8-2.8c0.5-0.4,1-0.8,1.6-1
		s1.2-0.3,1.9-0.3c0.6,0,1.3,0.1,1.9,0.3c0.6,0.2,1.2,0.6,1.6,1c0.5,0.4,0.9,1,1.2,1.5c0.2,0.4,0.4,0.8,0.6,1.3
		c0.4,0.9,0.6,1.7,0.8,2.8c0.1,0.6,0.2,1.2,0.3,1.9s0.1,1.4,0.1,2C167.2,108.9,167,110.4,166.8,111.6L166.8,111.6L166.8,111.6z
		 M143.3,116.9c-0.5-0.5-0.6-1.1-0.6-1.6l0,0V84.8h-2.4l0,0c-0.2,0.3-0.5,0.6-0.8,0.9s-0.6,0.5-0.9,0.8c-0.7,0.4-1.3,0.7-1.9,0.9
		c-1.1,0.3-2.2,0.2-3.4,0.2l0,0v2.3l0,0c0.5,0.1,0.9,0.2,1.4,0.3c0.4,0.1,0.7,0.3,1,0.7c0.3,0.4,0.4,0.8,0.4,1.2l0,0l0.1,23.3l0,0
		c0,0.6-0.2,1.2-0.6,1.7c-0.2,0.2-0.5,0.4-0.7,0.5c-0.3,0.1-0.6,0.2-0.9,0.2l0,0l-1.8,0.1v2.3l0,0c4.9-0.5,9.8-0.5,14.6,0l0,0v-2.3
		l0,0c-0.3,0-0.6,0-0.9-0.1C145,117.7,144.1,117.7,143.3,116.9L143.3,116.9L143.3,116.9z"/>

	<path fill="#bfa658" d="M158,13.7c0.9,0.4,1.6,2.3,3.9,2.3c1.3,0,2-0.3,3-0.7c1.5-0.5,2.8,0.2,2.8,0.6c-0.2,0.6-0.9,0.5-1.6,0.4
			c-1-0.1-1-0.3-1.8,0.3c-0.5,0.4-0.7,1.2-2.3,1c-0.2,0-0.4-0.1-0.5-0.1c-0.5-0.1-0.3,0-0.4,0.1c-0.3,0.4,0.7,2.5,0.9,3
			c1,2,2.5,3.2,4.6,3.7c1.9,0.4,5.2-1.2,6.8,0.9c1.4,1.8,1.9,0.7,2.8,1.4c0.6,0.5,0.5,0.5,0.9,1.1c0.3,0.5,0.5,0.9,0.8,1.3
			c1.2,1.8,2,1.3,1.9,2.3c-0.9,0.4-2.7-2-4.6-3c-0.9-0.4-0.9,0.1-1.9-0.7s-1.6-2.4-3-2.2c-0.9,0.2-1.4,0.6-3.3,0.4
			c-0.5-0.1-0.7-0.2-1.1-0.2c-0.4,0.2-0.3,0.3-0.8,0.5c-0.4,0.1-0.6,0.3-1,0.4c-0.8,0.2-1.7,0.2-2.4,0.4c-1.2,0.4-3.2,1.4-3.2,2.5
			c1.3,0.7,4.6,0.8,6.1,0.2c1.8-0.7,2.7-2.1,5.2-2c0.8,0,2.1,0.4,2.7,0.8c0.8,0.5,1.1,1.3,1.7,1.9c1.6,1.7,1.1-0.4,5,2.3
			c1.5,1,2.9,1.8,4.4,2.9l9.9,6.5c0.2,0.1,0.4,0.2,0.5,0.3c0.7,0.5,0.6,0.5,1.7,1.1c1.2,0.7,3,0.2,0.1-1.5c-0.4-0.2-0.6-0.4-0.8-0.7
			c-1-1.7,1.7-0.2-4.4-3.8c-1.7-1-1.6-0.6-2.8-2c-0.7-0.8-0.5,0.6-3.4-1.4c-0.8-0.6-1.3-0.5-1.8-1.4c0-0.6,0.2-1,0.6-1.2
			c0.5-0.2,1.1,0,1.7,0c-0.2-1.2-4-0.1-5.4-4.6c-0.8-2.5-1.6-2.1-2.3-4.5c-0.3-1.1-0.3-1.9-0.1-3c0.3-1.4,0.3-3-0.6-4.2
			c-0.3-0.5-0.3-0.8-1-0.8c-1.6,2.2-0.1,4.9,0.1,6.4c0.1,0.4,0.2,2.2-0.2,2.3c-0.5-0.1-1-0.8-1.1-1.3c-0.4-1-0.1-1.3-0.1-2.3
			c0-0.6-0.3-1.6-0.6-2c-1-1.5-2.3-1-1.9-5.6c0.1-1.4,0.1-3.1-0.9-4.2c-0.5,0-0.6,0.2-0.8,0.6c-0.7,1.3-0.4,2.7-0.1,4
			c1,3.5-1.2,1.8-1.6,0.1c-0.2-0.8,0.7-2.9-0.2-3.9c-1.6-2-2-0.6-2.4-2.2c-0.3-0.8-0.9-1.4-1.7-1.3c-0.8,0-1.4,0.8-1.8,1.2
			c-0.7,0.8-0.8,1-2,0.7c-0.9-0.2-1.6,0.4-1.9,1.1c-0.2,0.5-0.2,0.6-0.4,1.2c-0.3,1.1-2.1,0.8-1.5,3C156.7,13.9,157.5,13.5,158,13.7
			z M168.1,17.4c0.2,0.4-0.1,0.4-0.3,0.8c-0.9,2.1,0.8,3.6,1.7,1c0.2-0.7-0.1-1.6,0.4-2c0.4,0.1,0.6,0.8,0.7,1.2
			c0.6,3-2.9,5.2-4.8,3.9c-0.5-0.3-1.7-1.4-1.3-2.2c0.5,0,0.6,0.5,0.9,0.8c0.4,0.3,0.7,0.4,1.2,0.3c0.2-0.5-0.3-1.7,0.1-2.5
			C167,18.1,167.6,17.1,168.1,17.4z M160.3,12.1c1.1,0.5,1.1,0,1-0.7c-0.2-1.4,0.5-3.1,1.5-3c0.1,0.6-0.4,0.8-0.5,1.5
			c-0.3,2.1,1.1,2.2,1.7,0.7c0.5-1.1-0.1-2.5,0.7-2.2c0.5,0.2,0.6,1.9,0.4,2.7c-0.3,1.2-0.8,1.6-1.6,2.1s-2.1,0.7-3.1,0.2
			c-0.7-0.3-1.5-1.3-1.4-2.3C159.6,11,159.6,11.8,160.3,12.1z"/>

	<path fill="#bfa658" d="M283.9,34c-0.5-1.4-0.9-1.3-2.3-1.9c-1.1-0.5-2-0.8-2.9-1.5c-2-1.5-3.1-2-6.4-2.1c-2.7-0.1-2.8-0.5-4.8-1.5
			c-1.5-0.8-3.1-1.3-4.8-1.6c-2.4-0.4-5.4,0.5-5.3-1.2c0-0.7,0.4-1.1,0.8-1.4c1.1-0.8,2.6-0.4,4.1-0.4c1.8,0,1.3-0.5,1.4-1.9
			c0.1-0.7,0.5-0.5,0.5-1.1c0.1-1.3,0-0.4,0.5-1.2c0-1.5-0.1-0.8,1-1.4c0-0.5-0.8-1.5-1.2-2.2c-0.7-1.3,0.2-1.3,0.1-2.7
			c-1-0.5-3.3-0.2-4.4,0.1c-1,0.2-1.8,0.5-2.7,0.9c-0.9,0.4-1.8-0.1-0.3-0.8c0.3-0.1,0.9-0.3,1.3-0.5c1.7-0.6,3.5-1.3,5.2-2
			c0.6-0.2,2.3-0.7,2.6-1c-0.1-0.3-0.2-0.2-0.5-0.3c-0.7-0.2-1.2-0.4-1.9-0.7c-0.9-0.4-1.4-0.9-2-1.6c-0.6-0.7-0.8-1.3-1.6-1.9
			c-1-0.7-1.7-0.5-3-0.6c-0.2-0.2-0.3-0.3-0.3-0.8c0.5-0.5,1.2-0.3,1.3-1.4c0.1-2.1-4.5-0.9-7.6-0.9h-3.2c-1.8,0-3.7-0.3-5.5-0.3
			c-0.6,0-1.4-0.4-1.4,0.3c0.1,1.8,5.3,0.8,6.4,1.6v0.5c-0.5,0.3-1.4,0.2-2,0.2c-0.5,0-2.2-0.6-2.2,0.3c0.1,1.4,4.2,0.9,5.2,1.4v0.5
			c-0.4,0.3-1.5,0.3-2.1,0.2c-0.3,0-0.7-0.2-0.9,0c-0.9,1.4,4.6,1.5,5.6,1.3c0.6-0.1,0.7-0.1,1,0.3c-0.2,0.7-1.8,0.4-3.1,2.9
			c-0.9,1.9,0.3,4.6,0.1,5.1c-0.2,0.3,0,0.1-0.4,0.3c-0.3,0.1-0.7,0.4-0.9,0.6c-0.3,0.3-0.3,1,0.7,0.5c0.5-0.2,1-0.3,1.5-0.6
			c0.7-0.3,1-0.4,0.7,0.9c-0.3,1-0.6,1.9-1,2.8c-0.6,1.3-2,2.6-3.4,3c-0.4,0.1-0.6,0.1-1,0.3c-0.6,0.2-1.4,0.3-2,0.5l-1.7,0.8
			c-2.5,1.2-2.5,1.9-5.9,1.4c-1.5-0.2-3.2,0.4-4.2,0.9l-3.5,1.5c-0.5,0.2-1.2,0.6-1.7,0.8c-1,0.5-2.1,0.3-3.3,0.3c-5.6,0-7.7,2-10,2
			c-1.7-0.1-3-0.8-5.2-0.8s-4.4,0.5-6.5,1c-0.4,0.1-0.8,0.3-1.2,0.3c-2.8,0.5-5.2,0.9-8,0.5c-2.9-0.5-2.3-1-4-1.9
			c-0.9-0.5-1.6-0.3-2.6-0.4c-0.3,0-2.8-0.1-3-0.1c0,0.5,0.1,0.4,0.5,0.6l2.4,0.8c0.7,0.4,2.1,1.4,1.6,2.3c-1.1,0.1-2.1-0.7-2.8-0.3
			c0,0.6,0.6,0.7,1.6,1.2c1.8,1,2.5,1,4.6,0.6c0.5-0.1,0.8,0,1.3-0.2c0.5-0.1,0.8-0.1,1.1,0.1c0,1.1-1.9,0.7-2.8,1v0.4
			c0.6,0.4,1.3,0.1,2.1,0c0.7,0,1.4-0.1,2.1-0.2c2.5-0.3,6.1-0.4,8.5,0.4c1,0.3,3.1,0.4,4.3,0.4c1.7,0,3.2-0.6,4.8-0.6
			c1.3,0,2.9,0.6,4.2,0.8c3,0.4,6.3,0.7,9.3,0.2c1.3-0.2,2.7-0.8,3.2,0.7c0.3,1.1-0.4,2.7-0.7,3.6c-1.2,3.2,0,4.6-1.3,8.1
			c-1.1,2.8-3.4,3.4-4.5,4.4c-0.2,0.2-0.4,0.3-0.7,0.6c-1.5,1.2-2.5,2.5-3.3,4.3c-0.4,0.8-0.4,0.9-1.5,1c-1.6,0.2-3,0.3-4.5,0.6
			c-2.1,0.3-4,1-6,1.6c-0.7,0.2-1.2,0.5-1.8,0.8c-0.7,0.3-1.1,0.5-1.7,0.8c-0.6,0.3-1.1,0.6-1.7,0.8c-1.2,0.5-2.2,1.1-3.5,1.7
			c-2.3,1-1.3,0.9-3.5-0.1c-4.1-1.8-7.2-3.4-11.8-3.5c-2.6,0-4.9,0.1-7.4,0.2c-1.1,0-6.3,0.3-7.5-0.3c-0.1,0.1,0.2-1.5,0.1-1.4
			c-0.2,0.2-1.2-1.4-1.2-1.2l-2.6,0.8l-0.4,0.5h-0.2c-0.5-0.5-0.5-0.8-1.6-0.8c-1.2,0-2.2,0.4-3.2,1.1c-1.9,1.4-2.4,1.6-4.7,2
			c-0.7,0.1-1,0.3-1.7,0.5c-0.4,0.1-1.3,0.5-1.6,0.7c-0.5,0.3-1,0.5-0.9,1.3c0.7,0.3,0.9,0.1,1.7-0.1c4.1-0.9,5.1,0.5,9.5,0.1
			c3.7-0.4,4.9-0.5,8.5,0.2c2.9,0.6,8.2,1.9,10.8,3c1.4,0.6,5.3,2,6.7,2.4c5.9,2.1,9.1,2.8,15.7,2.1c5-0.5,15.1-2,19.7-3.3
			c3.8-1,2.9-1.6,4.7-0.1c0.4,0.3,0.8,0.7,1.1,1c2.3,1.9,4.8,3.7,7.3,5.2c1.3,0.8,2.6,1.7,3.9,2.4c0.9,0.5,4.8,2.6,5.5,2.9
			c2,0.7,1.2,0.8,1.5,2.7c0.1,0.6,0.2,1.2,0.2,1.8c0.2,2.4,1.7,5.1,3.2,6.9c1,1.2,1.9,2.1,3,3.2c0.3,0.3,0.9,0.7,1,1
			c0.3,0.5,0.6,0.8,0.9,1.2c0.4,0.4,3.4,4.7,2.6,5.3c-0.4,0.3-5.9,0-7.1,0c-1,0-0.7,0.8,0,1.1c1.2,0.6,3.3,0.5,4.7,0.6
			c1.1,0.1,2.3,0,3.4,0c0.9,0,2.5-0.3,3.1,0.2v0.5c-0.6,0.5-2.8,0.2-3.7,0.2c-1,0-1.8,0-2.7-0.1l-2-0.1c-0.1,0-0.3,0-0.4,0
			c-0.6,0.1-0.3,0.7,0,0.9c0.7,0.5,4.7,0.6,5.6,0.6c0.8,0,1.9-0.3,2,0.6c-0.1,0.7-2,0.5-2.5,0.4c-0.6,0-2.5-0.2-2.9-0.1
			c-0.3,1.3,2.1,1.2,3.2,1.4c0.8,0.1,3.6,0.2,4.2,0.5c0.1,1-1.9,3.2,0.2,4.2c0.6,0.3,1.4,0.6,2.2,0.7l2.5,0.7
			c0.8,0.3,1.1,0.6,1.8,1.2c0.3,0.3,0.6,0.4,0.9,0.7l0.8,0.7c0.6,0.5,0.9,0.8,1.8,1.2c0.4,0.2,2,1,2.3,0.5c0.2-0.5-0.4-0.9-0.7-1.2
			c-0.3-0.2-0.3-0.3-0.6-0.5c-0.4-0.3-0.8-0.7-1.1-1c-1-1.2-1.4-2.8-2.1-4.2c-0.9-2-0.8-1.8-2.2-3.1c-1.1-1.1-1.7-0.7-0.7-2.4
			c0.4-0.7,1.1-2.2,0.9-3.3c-0.2-1.5-1.9-1.1-3-1.1c-1.3,0-2.8,0.1-4.1,0.1c-0.5-0.2-0.2-0.6-0.1-0.7c0.6-0.6,2.7,0.4,2.3-0.8
			l-0.5-1.1l-1.4-3.4c-0.1-0.3-0.3-0.9-0.4-1.2c-0.3-0.7-0.6-1.6-0.8-2.4c-0.5-1.6-1.1-3.1-1.6-4.7c-0.5-1.7-1-3.1-1.6-4.8
			c-1.2-3.4-1.6-4.6-3.6-7.4c-1-1.4-2.7-2.8-4.1-3.9c-1.1-0.9-2.7-3.4-3.6-4.3c-0.7-0.8-1.9-2.3-2.9-3.3c-0.3-0.3-0.5-0.6-0.8-0.9
			c-1-1.2-4.6-4.2-4.9-4.6c-1.2-1.8-1.2-2.5,0.1-4.5c0.2-0.4,0.5-0.5,0.8-0.8c1.5-1.3,2.1-1.6,3.8-2.6c1-0.6,2-1.3,2.9-1.9l3.6-2.7
			c0.7-0.5,1.1-0.9,1.7-1.5c0.3-0.3,0.5-0.5,0.8-0.8c0.4-0.3,0.7-0.3,0.7-1c-0.8-0.6-1-1.1-0.5-2.1c1.3-2.7,4.2-2,5.3-2.1
			c0.4,0,0.9-0.2,1.1-0.5c-0.4-0.2-1.2-0.1-1.7-0.2c-1.3-0.3-1.1-0.9-0.8-1c0.2,0,0.4,0,0.7,0c0.3,0,0.6,0,1,0
			c3.5,0.1,2.2,1.9,0.8,2.3c-1.5,0.4-3.5-0.2-4.8,1.1c-0.4,0.4-0.6,0.8-0.6,1.5c0.5,0.3,3.3,0.6,4.1,0.6c1.1,0,3.2-0.3,4-0.6
			c0.6-0.2,3.1-0.9,3.7-1.1c2.5-0.6,5.7-0.1,8.4-0.5c0.7-0.1,1.2-0.2,1.9-0.3c1.4-0.1,3.5-1,4.9-1.5c1.6-0.6,2.7-1.5,4.1-2.4
			c0.5-0.3,0.9-0.6,1.3-0.8C283.6,36.1,284.5,35.6,283.9,34z M216.1,69.2c-1.5,0.4-7,1.5-8.4,1.6c-1.1,0.1-1.9,0.3-2.9,0.4
			c-1.4,0.1-4.7,1-5.7,0.2c0-1,1.8-1,3.3-1.5c1.2-0.4,2-1.3,2.9-1.9c1-0.7,1.9-1.3,2.9-1.9c0.9-0.6,1.9-1.3,2.9-1.8
			c1-0.5,3.7-2.4,4.6-2.7c1.5-0.5,1.5,1.2,3.6,3.4c0.4,0.4,0.7,0.8,1.1,1.3c0.4,0.4,0.9,0.6,0.9,1.5
			C220.5,68.2,217.2,68.9,216.1,69.2z M235.2,69.5c0.5,0.4,0.9,0.8,1.3,1.3l2.8,2.3c0.6,0.5,3.2,2.3,3.8,2.6
			c0.4,0.2,2.1,1.3,2.3,1.5c2.9,2.3,2.9,2.2,3.6,6.7c0.5,2.8,0.8,5.5,2.3,7.9c0.4,0.6,0.7,1.1,1,1.6c0.2,0.3,0.4,0.5,0.6,0.8
			c0.8,1.3,3.9,5.2,4.1,6.1c0.1,0.5-0.1,0.9-0.5,0.6c-0.2-0.1-0.8-1.1-1-1.5c-0.7-1.1-1.5-2-2.3-2.9c-2.2-2.7-4.4-4.1-5.9-7
			c-1.2-2.3-1.2-3.3-1.5-6.2c-0.4-3,0.7-2-1.8-3.3c-3.8-1.9-6.4-3.7-9.8-5.6c-3-1.6-6.1-4.4-8.6-6.8c-1.6-1.5-3.6-3.5-4.7-5.6
			c-1.4-2.8,0-5.2,2.6-6.5c2.2-1,2.4,3,4.3,5.7c1.1,1.5,2.3,2.9,3.4,4.4c0.2,0.3,0.4,0.4,0.6,0.6C232.9,67.3,234.2,68.7,235.2,69.5z
			 M244.1,39.5c-0.1,0.6-3.6,1.6-4.4,1.9c-3.6,1.4-6.8,3.8-9.2,6.7c-0.3,0.3-0.4,0.6-0.7,0.9c-0.3,0.4-0.4,0.6-1.1,0.5
			c-0.6-1-0.8-3.7-0.7-4.9c0.2-2.9,2.1-5.9,1.1-9.6c-0.8-3.2-1.8-2.4-1.5-4c0.8-0.4,1.8-0.1,2.5,0.2c2.2,1,3.9,2.4,5.4,4.2
			c1,1.3,1.8,2.4,3.4,3C240.8,39.3,244.4,38.2,244.1,39.5z M256.3,22.2c-0.9,0.6-1,1.8-1.3,2.4c-2.6,0.8-0.2-2.3-0.9-3.1
			c-0.6-0.5-0.9,1.1-1.1,1.5c-0.6,1.3-1.8,2.3-3.2,2.4c-2.6,0.3-3.6-1.5-7,0.4c-2.9,1.5-3.4,0-2-0.9c1.1-0.7,2.5-1.4,4-1.7
			s2.4-0.2,3.9-1.7c2.3-2.4,1.9-4,3.1-5.4c0.4-0.5,1.1-1,1.8-1c0.5,0.9,0.3,2.8,0.8,4C255,21.4,258,21,256.3,22.2z M271.9,35.1
			c-1.1,0.5-2.2,0.8-3.3,1.3c-1.1,0.5-2,0.9-3.3,1.4c-1,0.4-2.7,0.8-3.9,0.7c-1.1-0.1-3.4-0.3-2.6-1.8c0-0.1,3-3.6,3.6-4.5
			c0.2-0.4,0.1-0.4,0.5-0.5c0.6,0.8-0.8,1.8,0.8,2.1c1.3,0.3,2.2,0.3,3.5,0.3c1.6,0,2.9,0,4.4-0.2c0.6-0.1,1.7-0.1,1.8,0.4
			C273.4,34.7,272.3,34.9,271.9,35.1z"/>
	<path fill="#bfa658" d="M152.3,24.6c1.7,1.1,4.7,1.5,6.8,0.7c0.6-0.2,0.7-0.1,1.2,0.1c0.9,0.4,2,0.2,2.9-0.1c0.6-0.2,1-0.1,1.1-0.6
			c-0.3-0.4-1.6-0.8-2.1-1.2c-3.8-2.5-1.9-5.9-4.8-8.5c-1.8-1.6-3.3,0.9-4.4,1.3c-1.7,0.7-3.2,0.8-2.8,3.7c0.2,1.6-0.9,1.5-0.8,2.5
			C149.3,24,151.1,23.8,152.3,24.6z M151.5,20.6c0.6,0,0.5,0.4,0.9,0.7c0.2,0.2,0.9,0.4,1.2,0.2c0.3-0.3,0-0.7,0-1.2
			c0-0.4,0.1-0.9,0.2-1.2c0.1-0.5,0.8-1.5,1.3-1.3c0,0.1,0.1,0.1,0,0.4c-0.2,0.4-0.4,0.5-0.5,1.3c-0.2,2.4,1.9,1.8,2.1-1
			c0-0.5-0.1-0.6,0-0.9c1.2,0.3,1.4,3.7-0.8,5C153.2,24.2,151.3,21.9,151.5,20.6z"/>
	<path fill="#bfa658" d="M166,61.8c0,0.1,0.1,0.2,0.3,0.2c1-0.8,1.9-1.6,2.7-2.6c0.8-1.1,1.1-1.6,1.1-2.9c0-1.2-1.2-1.5-2.4-2l-2.7-1
			c-1-0.4-2.1-0.9-3.1-1.2c-1.1-0.3-6.2-2.4-7.8-3.2c-0.4-0.2-1-0.6-1.1,0c0,0.1,0,0.3,0,0.4c0.1,0.2,0.4,0.5,0.6,0.6
			c0.6,0.5,1,0.6,1.8,1c2.7,1.2,5.5,2.4,8.3,3.4c0.4,0.2,1.4,0.4,1.7,0.7c0.3,0.3,0.2,1-0.8,0.6c-2.3-0.8-4.6-1.7-6.8-2.7
			c-0.7-0.3-2.6-1.3-3.1-1.1c-0.3,0.7,0.3,1.2,0.8,1.6c1.4,0.8,2.9,1.3,4.5,2c0.5,0.2,2.6,0.7,2.6,1.3c-0.3,0.8-0.8,0.4-1.5,0.2
			c-0.6-0.3-1.3-0.5-2-0.7c-0.6-0.2-1.1-0.5-1.7-0.8c-0.7-0.3-1.2-0.9-1.4,0.1c0.1,0.9,2.5,1.9,3.2,2.3c1.7,0.8,2.4,0.9,3.1,2.4
			l-0.1,0.3l0.4-0.1L166,61.8z"/>
	<path fill="#bfa658" d="M163.1,46.4C163.1,46.4,163,46.4,163.1,46.4c-0.4-0.1-0.5-0.3-0.5-0.6c0.1-0.3,1.6-8.2,6.1-14.5
			c0.2-0.2,0.5-0.3,0.7-0.1s0.3,0.5,0.1,0.7c-4.3,6.1-5.9,14.1-5.9,14.2C163.5,46.3,163.3,46.4,163.1,46.4z"/>
	<path fill="#bfa658" d="M180.9,17.7c-0.1,0-0.2,0-0.3-0.1c-0.2-0.2-0.2-0.5,0-0.7c0.2-0.3,24.7-24.9,63.8-9c0.3,0.1,0.4,0.4,0.3,0.7
			S244.3,9,244,8.9c-38.5-15.6-62.5,8.6-62.7,8.8C181.1,17.6,181,17.7,180.9,17.7z"/>
	<path fill="#bfa658" d="M267,95.1c-0.1,0-0.2,0-0.3-0.1c-0.2-0.2-0.3-0.5-0.1-0.7c17.1-22.2,7.9-49.8,7.8-50.1
			c-0.1-0.3,0-0.5,0.3-0.6s0.5,0,0.6,0.3s9.5,28.4-7.9,51C267.3,95,267.2,95.1,267,95.1z"/>
	<path fill="#bfa658" d="M235.8,119c-0.2,0-0.4-0.1-0.5-0.3c-0.1-0.3,0-0.5,0.3-0.6c0.1,0,9.9-3.9,16.8-8.5c0.2-0.2,0.5-0.1,0.7,0.1
		c0.2,0.2,0.1,0.5-0.1,0.7c-7,4.6-16.9,8.5-17,8.5C235.9,119,235.9,119,235.8,119z"/>
</g>
</svg>
